<?xml version="1.0" standalone="no"?>
<!DOCTYPE svg PUBLIC "-//W3C//DTD SVG 20010904//EN"
 "http://www.w3.org/TR/2001/REC-SVG-20010904/DTD/svg10.dtd">
<svg version="1.0" xmlns="http://www.w3.org/2000/svg"
 width="292.000000pt" height="302.000000pt" viewBox="0 0 292.000000 302.000000"
 preserveAspectRatio="xMidYMid meet">
<g transform="translate(0.000000,302.000000) scale(0.100000,-0.100000)"
fill="#000000" stroke="none">
<path d="M1373 2931 c-52 -32 -67 -66 -73 -155 l-5 -80 -106 -26 c-124 -31
-178 -50 -274 -98 -575 -286 -862 -965 -661 -1567 71 -211 170 -371 325 -525
361 -357 892 -470 1371 -289 370 139 647 430 775 811 86 258 86 549 -1 815
-70 215 -259 496 -353 524 -75 22 -150 -41 -138 -117 4 -20 29 -60 68 -106
110 -130 182 -260 223 -400 113 -392 10 -795 -276 -1079 -226 -225 -551 -342
-858 -309 -542 57 -952 487 -977 1026 -4 73 -1 153 6 204 60 407 361 757 757
880 36 11 77 20 90 20 22 0 24 -4 24 -56 0 -102 50 -163 140 -172 54 -5 46 -8
285 126 182 101 208 121 232 166 19 36 13 111 -11 147 -9 15 -105 79 -223 149
-179 107 -214 124 -258 127 -37 3 -58 -1 -82 -16z"/>
<path d="M1060 1719 c-63 -45 -132 -95 -153 -111 l-37 -30 37 -69 c20 -38 41
-69 45 -69 5 0 31 11 59 25 27 14 55 23 61 19 11 -7 4 -425 -8 -486 l-6 -28
116 0 116 0 2 350 c1 193 2 378 3 413 l0 62 -60 3 -60 3 -115 -82z"/>
<path d="M1677 1779 c-60 -14 -110 -44 -156 -94 -144 -156 -159 -437 -34 -618
81 -116 266 -158 409 -93 243 111 294 551 85 738 -75 68 -191 94 -304 67z
m148 -222 c53 -53 77 -176 55 -282 -30 -144 -160 -181 -222 -62 -27 51 -37
198 -18 266 28 104 120 143 185 78z"/>
</g>
</svg>
