<?xml version="1.0" standalone="no"?>
<!DOCTYPE svg PUBLIC "-//W3C//DTD SVG 20010904//EN"
 "http://www.w3.org/TR/2001/REC-SVG-20010904/DTD/svg10.dtd">
<svg version="1.0" xmlns="http://www.w3.org/2000/svg"
 width="290.000000pt" height="305.000000pt" viewBox="0 0 290.000000 305.000000"
 preserveAspectRatio="xMidYMid meet">
<g transform="translate(0.000000,305.000000) scale(0.100000,-0.100000)"
fill="#000000" stroke="none">
<path d="M1455 2981 c-47 -12 -426 -244 -449 -275 -29 -39 -29 -133 0 -173 21
-28 172 -120 363 -220 115 -60 156 -65 210 -25 51 37 71 79 71 149 l0 65 33
-7 c69 -15 185 -58 267 -101 421 -218 653 -697 560 -1155 -50 -243 -147 -419
-326 -588 -194 -184 -422 -278 -699 -288 -118 -4 -156 -2 -243 16 -215 45
-380 132 -540 286 -133 127 -218 261 -276 435 -124 373 -39 773 226 1066 25
29 49 62 53 74 21 67 -35 140 -106 140 -34 0 -48 -7 -93 -50 -29 -27 -78 -85
-109 -128 -175 -243 -257 -520 -244 -822 16 -343 146 -630 398 -875 181 -176
392 -289 639 -342 118 -25 400 -25 518 1 287 61 517 196 717 417 350 389 425
973 184 1446 -62 122 -124 208 -228 316 -172 179 -370 294 -614 357 -60 15
-113 34 -118 41 -5 8 -9 43 -9 77 0 43 -6 74 -17 94 -32 54 -107 84 -168 69z"/>
<path d="M1650 1837 c-71 -17 -112 -39 -158 -87 -165 -169 -163 -517 3 -669
70 -63 138 -85 245 -79 177 10 286 120 327 328 32 159 -7 318 -102 419 -75 80
-199 114 -315 88z m142 -224 c39 -37 60 -109 60 -207 0 -131 -44 -206 -121
-206 -87 0 -136 85 -136 235 0 75 4 98 24 139 39 79 114 96 173 39z"/>
<path d="M980 1730 c-80 -60 -144 -114 -143 -119 1 -5 19 -39 38 -75 l37 -66
58 30 c33 17 62 30 65 30 3 0 5 -117 5 -260 l0 -260 116 0 116 0 -6 35 c-4 20
-7 207 -7 415 l0 380 -67 0 -67 -1 -145 -109z"/>
</g>
</svg>
